<svg width="1200" height="700" viewBox="0 0 1200 700" fill="none" xmlns="http://www.w3.org/2000/svg">
  <rect width="1200" height="700" fill="#3E3A39"/>
  <rect x="120" y="110" width="960" height="480" rx="28" fill="#2B2928"/>
  <path d="M180 190H1020" stroke="#595553" stroke-width="12"/>
  <path d="M180 320H1020" stroke="#595553" stroke-width="12"/>
  <path d="M180 450H1020" stroke="#595553" stroke-width="12"/>
  <rect x="240" y="160" width="22" height="170" rx="8" fill="#D27625"/>
  <rect x="310" y="160" width="22" height="220" rx="8" fill="#A65A21"/>
  <rect x="380" y="160" width="22" height="180" rx="8" fill="#D27625"/>
  <rect x="520" y="205" width="160" height="40" rx="12" fill="#7C4928"/>
  <rect x="720" y="205" width="120" height="40" rx="12" fill="#AF6A35"/>
  <circle cx="260" cy="390" r="22" fill="#C8C8C8"/>
  <circle cx="340" cy="390" r="22" fill="#C8C8C8"/>
  <circle cx="420" cy="390" r="22" fill="#C8C8C8"/>
  <rect x="720" y="360" width="220" height="110" rx="18" fill="#1B1A1A"/>
  <path d="M160 590C340 520 530 520 710 590" stroke="#4C4A49" stroke-width="18" stroke-linecap="round"/>
</svg>
