<svg width="1200" height="700" viewBox="0 0 1200 700" fill="none" xmlns="http://www.w3.org/2000/svg">
  <rect width="1200" height="700" fill="#E9F3FE"/>
  <rect x="130" y="130" width="940" height="440" rx="30" fill="#F9FCFF"/>
  <ellipse cx="340" cy="290" rx="110" ry="48" fill="#D6E8FA"/>
  <rect x="230" y="290" width="220" height="170" rx="34" fill="#FFFFFF" stroke="#BED5EE" stroke-width="8"/>
  <ellipse cx="340" cy="460" rx="110" ry="30" fill="#D6E8FA"/>
  <ellipse cx="650" cy="310" rx="110" ry="48" fill="#D6E8FA"/>
  <rect x="540" y="310" width="220" height="150" rx="34" fill="#F5FAFF" stroke="#BED5EE" stroke-width="8"/>
  <ellipse cx="650" cy="460" rx="110" ry="30" fill="#D6E8FA"/>
  <ellipse cx="920" cy="290" rx="90" ry="42" fill="#D6E8FA"/>
  <rect x="830" y="290" width="180" height="170" rx="30" fill="#FFFFFF" stroke="#BED5EE" stroke-width="8"/>
  <ellipse cx="920" cy="460" rx="90" ry="26" fill="#D6E8FA"/>
  <path d="M200 560C360 500 520 500 680 560C810 610 930 610 1040 560" stroke="#C7DCF4" stroke-width="16" stroke-linecap="round"/>
</svg>
