<svg width="1200" height="700" viewBox="0 0 1200 700" fill="none" xmlns="http://www.w3.org/2000/svg">
  <rect width="1200" height="700" fill="#EEE8DB"/>
  <rect x="120" y="110" width="960" height="480" rx="28" fill="#FFFDF8"/>
  <rect x="180" y="170" width="170" height="120" rx="12" fill="#204C8D"/>
  <rect x="180" y="320" width="170" height="120" rx="12" fill="#D84E39"/>
  <rect x="180" y="470" width="170" height="60" rx="12" fill="#F5D35D"/>
  <rect x="420" y="170" width="170" height="120" rx="12" fill="#4A7A33"/>
  <rect x="420" y="320" width="170" height="120" rx="12" fill="#121212"/>
  <rect x="420" y="470" width="170" height="60" rx="12" fill="#8E5A3C"/>
  <rect x="660" y="170" width="170" height="120" rx="12" fill="#F47F20"/>
  <rect x="660" y="320" width="170" height="120" rx="12" fill="#C3A06B"/>
  <rect x="660" y="470" width="170" height="60" rx="12" fill="#334D7B"/>
  <rect x="900" y="170" width="120" height="360" rx="18" fill="#212121"/>
  <path d="M240 610C410 530 600 530 770 610" stroke="#D4CAB5" stroke-width="20" stroke-linecap="round"/>
</svg>
